
<svg xmlns="http://www.w3.org/2000/svg" viewBox="0 0 1072.46 904.08"><path d="M858.69,0c6.52,3.37,8.75,5.59,12.45,12.58,4.28,8.09,7.06,16.77,9.57,25.53a423.26,423.26,0,0,1,9.65,42.5c2.59,14.63,5.13,29.27,7.37,44,2,12.79,3.53,25.64,5.18,38.48,1.55,12.05,3.05,24.1,4.43,36.17,1.19,10.32,2.19,20.66,3.26,31,1.15,11.13,2.32,22.26,3.41,33.39.81,8.28,1.52,16.56,2.26,24.84q1.25,13.85,2.47,27.7c.19,2.23.3,4.47.5,6.7.13,1.39.36,2.78.59,4.43,1.38-.17,2.46-.22,3.51-.44q15.48-3.19,30.93-6.42a9.51,9.51,0,0,1,2.35-.33,3.16,3.16,0,0,1,2.8,2.83,2.94,2.94,0,0,1-1.81,3.08,40.94,40.94,0,0,1-4.64,1.18c-9.68,2-19.38,4-29.06,6-1.08.23-2.13.66-3.23,1a4.81,4.81,0,0,0-.35,1.39q1.08,13.62,2.22,27.24c.45,5.42,1.05,10.83,1.36,16.25.91,15.73-5.37,27.92-18.4,36.67a64.56,64.56,0,0,1-23.44,9.33,151.93,151.93,0,0,1-42.94,2.35c-7.33-.6-14.65-1.12-21.92-2.25-6.94-1.07-13.87-2.22-20.8-3.35-1.73-.28-3.46-.6-5.47-1A18.83,18.83,0,0,0,790,424c-1,9.69-2.17,19.41-1.36,29.18a46,46,0,0,0,1.91,9.33c.72,2.42,2.43,2.9,4.45,1.33a66,66,0,0,0,5.88-5.59c.79-.79,1.36-1.79,2.15-2.57a3.19,3.19,0,0,1,4-.18,2.88,2.88,0,0,1,.89,3.84c-3,4.79-6.66,9-12,11.28-3.94,1.64-7.61.38-10-3.19a19.07,19.07,0,0,1-2.83-7.58,87.9,87.9,0,0,1-.68-23.42c.42-4.62.95-9.22,1.39-13.84.09-.93,0-1.89,0-3.06-1.29-.39-2.47-.81-3.67-1.1-6.67-1.61-13.36-3.15-20-4.8a54.38,54.38,0,0,1-12.5-4.77,23.14,23.14,0,0,1-6.85-5.17c-3.49-4-4.1-8.71-1.35-13.28a29.65,29.65,0,0,1,4.86-5.88A52.75,52.75,0,0,1,756,376.4a198.53,198.53,0,0,1,26.7-11.8c2.23-.83,4.44-1.7,6.81-2.61.3-2.18.64-4.21.86-6.27q2.39-22.89,4.73-45.78c1.09-10.66,2.11-21.32,3.25-32,1.41-13.19,2.93-26.37,4.38-39.56,1.1-10,2.12-20,3.23-30,1.1-9.85,2.29-19.69,3.41-29.53s2.13-19.71,3.35-29.54c2-16,3.68-32.06,6.36-48C821.89,84.78,825,68.3,829,52a215.82,215.82,0,0,1,9.48-30.64c1.09-2.66,2.27-5.29,3.58-7.84C845.89,6,848,3.82,854.85,0Zm54.45,329c0-1.46.06-2.25,0-3q-1.33-15.76-2.73-31.53-1-11.7-2.16-23.4c-.8-8.27-1.64-16.54-2.46-24.81-.76-7.64-1.46-15.28-2.29-22.9-1.08-10-2.25-20-3.41-30-1.37-11.75-2.64-23.51-4.21-35.23-2-14.73-4.17-29.42-6.34-44.12-2.88-19.45-6.39-38.78-10.83-57.92-2.49-10.74-5.25-21.41-9.34-31.68-1.18-3-2.51-5.88-3.92-8.74a30.32,30.32,0,0,0-3-4.88c-4.14-5.45-7-5.42-11.22.11a31.53,31.53,0,0,0-3.05,4.87c-1.43,2.85-2.78,5.75-4,8.71a210.3,210.3,0,0,0-8.53,27.43c-3.82,15-6.78,30.23-9.35,45.51-1.65,9.77-2.9,19.6-4.24,29.41-.8,5.86-1.46,11.74-2.16,17.61-1.15,9.68-2.31,19.36-3.42,29s-2.17,19.38-3.25,29.07q-1.76,15.72-3.52,31.45c-.77,7-1.51,14-2.27,21q-1.26,11.67-2.52,23.36c-.76,7.15-1.49,14.3-2.24,21.46q-1.29,12.15-2.57,24.31-1.23,11.69-2.45,23.37c-.38,3.65-.7,7.31-1,11,0,.13.17.26.26.4.28.09.61.34.85.27C835.61,347.15,874.15,337.67,913.14,329Zm.49,6.72c-1.54.23-2.64.3-3.7.56-19.38,4.63-38.8,9.15-58.13,14-17.64,4.41-35.12,9.41-52.36,15.2a8.68,8.68,0,0,0-3.83,1.92c-.5,5.25-1,10.5-1.48,15.74-.51,5.09-1.26,10.16-1.58,15.25s-1.69,10.37-1,15.8c2.17.47,4.16,1,6.18,1.34a377,377,0,0,0,37.45,5.15c14.23,1.1,28.41,1.23,42.51-1.28,8.07-1.43,15.85-3.77,22.86-8.11,12.07-7.48,18-18.2,16.84-32.57-.3-3.66-.68-7.32-1-11-.76-9.72-1.47-19.44-2.22-29.16A28.68,28.68,0,0,0,913.63,335.76Zm-129.5,77.06a8.35,8.35,0,0,0,.58-1.43q1.45-13.81,2.86-27.62c.38-3.81.75-7.62,1.06-11.44a14.2,14.2,0,0,0-.21-2.54,5,5,0,0,0-1.27,0c-9.44,3.44-18.8,7.1-27.58,12a103.76,103.76,0,0,0-10,6.54,18.45,18.45,0,0,0-4,4.11c-2.19,3-1.89,5.57,1,8a28.24,28.24,0,0,0,5.64,3.56,55.27,55.27,0,0,0,12.2,4.1C771,409.6,777.44,411.21,784.13,412.82Z" fill="#fff"/><path d="M83.18,904.08A13.87,13.87,0,0,1,80.61,898c-3.63-16-7.51-32-10.78-48.15-3.73-18.31-7.06-36.7-10.28-55.11-2.31-13.22-4.21-26.51-6.17-39.78-1.89-12.81-3.72-25.62-5.41-38.45-1.52-11.57-2.83-23.16-4.2-34.74-1.18-10-2.36-20-3.45-30-.82-7.47-1.51-15-2.25-22.42-.84-8.43-1.7-16.86-2.49-25.3s-1.52-16.87-2.24-25.31Q32,562.92,30.73,547.15c-.23-2.87-.32-5.75-.55-8.61a34.52,34.52,0,0,0-.72-3.66c-1.28,1.18-2.23,2-3.07,2.86q-9.08,9.59-18.11,19.19a31.51,31.51,0,0,1-2.7,2.72,4.67,4.67,0,0,1-2.13.91,2.7,2.7,0,0,1-2.87-1.29,2.61,2.61,0,0,1-.1-3.14,33.36,33.36,0,0,1,2.78-3.29c7.78-8.26,15.55-16.55,23.42-24.73a7.38,7.38,0,0,0,2.24-6.38c-1-11.79-1.64-23.6-2.39-35.41Q25.24,465.74,24,445.15q-.59-9.82-1.05-19.64c-.44-9.42-.83-18.85-1.22-28.28-.52-12.3-1.09-24.6-1.52-36.9-.46-13.27-1-26.54-1.13-39.81a114.72,114.72,0,0,1,3.6-31.34,51,51,0,0,1,6.67-15.31c5.83-8.65,13.85-13.45,24.37-14a56.85,56.85,0,0,1,22.07,3.64,122.69,122.69,0,0,1,21.54,10.37,222.49,222.49,0,0,1,31,22.5,23.94,23.94,0,0,1,2.76,2.66,3.1,3.1,0,0,1-4,4.56,46.73,46.73,0,0,1-3.73-3,211.84,211.84,0,0,0-30.34-21.8A109.51,109.51,0,0,0,70,268.38a48,48,0,0,0-12.21-2.26c-9.18-.36-16.94,2.65-22.43,10.43a46.27,46.27,0,0,0-6.79,15.75,98.69,98.69,0,0,0-2.86,22.3c-.12,7.2,0,14.4.21,21.59.51,16.46,1,32.93,1.74,49.38.72,16.77,1.64,33.54,2.49,50.31.4,8,.77,16,1.23,23.95.49,8.46,1.07,16.91,1.6,25.37.43,6.86.83,13.73,1.28,20.58.27,4,.62,7.94.92,11.8,1.22.42,1.68-.36,2.2-.9,3.95-4.18,7.82-8.45,11.85-12.57a73,73,0,0,1,7.07-6.43,19.69,19.69,0,0,1,5.09-2.59c4.74-1.8,8.77-.5,12.11,3.18a21,21,0,0,1,3.91,7.09A53.85,53.85,0,0,1,80.06,518c2.79,25.26,6.79,50.34,11,75.4,2.57,15.44,5.41,30.84,9.45,46,.91,3.39,2,6.73,3.12,10.07a22.2,22.2,0,0,0,1.48,2.82,10.8,10.8,0,0,0,1-2.1c2.13-11.34,3.68-22.7,2.57-34.3-.7-7.32-1-14.68-1.25-22-.78-21.58-1.58-43.16-1-64.75.26-10.07.55-20.14,1.74-30.16a59.06,59.06,0,0,1,3-13.54,24.66,24.66,0,0,1,3-5.93c2.92-4,7.78-4.93,11.82-2a27,27,0,0,1,6,6.07c2.58,3.64,4.71,7.6,7,11.43,1,1.64,1.79,3.41,2.91,4.95,5.15,7.13,12.4,9.39,20.67,6.46a42.45,42.45,0,0,0,11.94-7q11.12-8.76,22.25-17.48a14.92,14.92,0,0,1,2.77-1.86,3.16,3.16,0,0,1,3.85,1,2.94,2.94,0,0,1-.34,3.93,20.61,20.61,0,0,1-2.2,1.84q-11.29,8.91-22.61,17.8A47.56,47.56,0,0,1,166,511.92a25.86,25.86,0,0,1-12.16,2c-8.67-.95-14.68-5.78-18.93-13.1-1.92-3.32-3.63-6.76-5.64-10a49,49,0,0,0-4.59-6.13,19.53,19.53,0,0,0-3.16-2.47c-2.37.55-3,2.24-3.72,3.84a44,44,0,0,0-2.93,11.57A228.6,228.6,0,0,0,113,524.38c-.5,24.8-.09,49.58,1.1,74.34.38,7.83,1,15.64,1.44,23.46a27.42,27.42,0,0,1,.07,4.79c-.82,7.3-1.69,14.6-2.68,21.88a34.32,34.32,0,0,1-1.54,6,12.81,12.81,0,0,1-1.66,3.43c-2.15,3-5.77,3.39-8.15.57A20.18,20.18,0,0,1,98,652.7c-1.88-5.42-3.65-10.91-5-16.48-3.63-14.91-6.42-30-8.86-45.13-2.19-13.57-4.39-27.13-6.37-40.73C76.19,539.61,75,528.81,73.52,518a91.5,91.5,0,0,0-2.16-10.3,16,16,0,0,0-2-4.3c-1.64-2.58-3.81-3.25-6.6-2.08a16.27,16.27,0,0,0-3.31,1.91,23.13,23.13,0,0,0-3.25,2.84c-6.69,7.09-13.34,14.21-20.07,21.39,0,1.28-.08,2.56,0,3.82q.75,10.29,1.56,20.56c.41,5.1.82,10.2,1.27,15.3,1.22,13.85,2.42,27.7,3.69,41.55,1,11.14,2.06,22.28,3.21,33.41,1,10.18,2.23,20.34,3.39,30.5q1.57,13.82,3.25,27.62c1,8.56,2.12,17.12,3.29,25.67q2.07,15.2,4.33,30.37c2,13.11,3.92,26.23,6.16,39.3,2.57,14.95,5.4,29.87,8.24,44.77q5.25,27.54,12.1,54.73a13.31,13.31,0,0,0,.55,2.32c1.2,2.5.52,4.64-1.07,6.66Z" fill="#fff"/><path d="M254.61,581.15c.2,3.16.3,6,.56,8.88q2.16,23.15,4.39,46.3c1.09,11.46,2.07,22.92,3.24,34.37,1.39,13.67,2.91,27.33,4.43,41,1.35,12.23,2.66,24.47,4.19,36.68,1.47,11.73,3.2,23.43,4.82,35.14.09.63.28,1.25.32,1.89.13,2-.78,3.3-2.37,3.62a3,3,0,0,1-3.85-2.59q-1.05-5.41-1.79-10.88c-1.59-11.71-3.19-23.43-4.63-35.16-1.2-9.68-2.19-19.38-3.25-29.07-1.16-10.48-2.33-21-3.43-31.45-.81-7.79-1.51-15.59-2.27-23.39-.82-8.43-1.68-16.86-2.48-25.29s-1.53-16.87-2.3-25.31c-.64-7-1.3-14-2-21.36-1.45.54-2.61.93-3.73,1.4-7.66,3.19-15.26,6.53-23,9.57a51.68,51.68,0,0,1-15.3,3.71,24,24,0,0,1-6.17-.3c-4.94-.95-7.74-4.83-7-9.79a25.3,25.3,0,0,1,2.16-7.3,81.83,81.83,0,0,1,6.64-11.63c4.36-6.11,9-12,13.77-17.83,8.26-10,16.74-19.77,25.12-29.64.61-.73,1.2-1.47,1.65-2,0-2,.13-3.79,0-5.53-1.12-13.54-2.31-27.08-3.41-40.62-.81-9.88-1.49-19.76-2.26-29.64-.81-10.36-1.66-20.72-2.49-31.08-.38-4.78-.77-9.56-1.12-14.34q-1.62-22.73-3.23-45.44c-.45-6.22-1-12.43-1.48-18.65-.17-2.39-.26-4.79-.2-7.18a3.09,3.09,0,0,1,2.9-2.7,3,3,0,0,1,2.95,2,14.06,14.06,0,0,1,.61,3.28c.75,10.68,1.43,21.37,2.21,32.05.77,10.52,1.67,21,2.47,31.56.77,10.2,1.46,20.41,2.25,30.61.8,10.36,1.67,20.71,2.5,31.07q1.11,13.86,2.19,27.73,1.08,13.62,2.17,27.24a3.46,3.46,0,0,0,.37.92c1.45.52,1.87-.81,2.53-1.56,8.7-9.81,17.32-19.69,26-29.48q47.26-53,96.33-104.32,13.72-14.43,27.52-28.78a19.16,19.16,0,0,1,2.75-2.66,4.67,4.67,0,0,1,2.67-.69,2.82,2.82,0,0,1,2.32,4.2,16.59,16.59,0,0,1-2.43,2.94q-47.34,49-93.29,99.29c-20.43,22.49-40.49,45.31-60.71,68-.64.72-1.24,1.47-1.89,2.17a4.16,4.16,0,0,0-1.15,3.49q1.19,12.64,2.27,25.31c.48,5.58.89,11.16,1.34,16.73a24.34,24.34,0,0,0,1.19,7.22c1.75-.85,3.33-1.59,4.87-2.39,25.67-13.34,50.58-28,75.29-43,29.22-17.77,58.06-36.15,86.73-54.79,1.34-.87,2.67-1.76,4.08-2.51a3.06,3.06,0,0,1,4.17,1,3.26,3.26,0,0,1-.85,4.28c-1,.79-2.09,1.46-3.16,2.16-11.42,7.35-22.81,14.76-34.27,22.05C357.47,522,323.56,543.15,288.7,562.7c-10,5.62-20.24,10.92-30.36,16.38C257.22,579.68,256.11,580.31,254.61,581.15Zm-7.07-3.82c-.43-5.49-.82-10.73-1.26-16s-.75-10.21-1.38-15.28-.2-10.39-1.87-15.89c-1,1-1.62,1.68-2.21,2.38-7.77,9.14-15.6,18.22-23.25,27.44-3.57,4.3-6.95,8.78-10.14,13.37a93.16,93.16,0,0,0-6.05,10.32,24.85,24.85,0,0,0-1.92,5.88,2.49,2.49,0,0,0,2.13,3.19,17.18,17.18,0,0,0,4.75.1,46.88,46.88,0,0,0,6.07-1.31C224.52,588.35,235.74,583,247.54,577.33Z" fill="#fff"/><path d="M682.24,358.06l-1.94,4.8c-3.29,8.13-6.46,16.33-9.94,24.39a63.19,63.19,0,0,1-8.63,14.9,25.32,25.32,0,0,1-5.14,4.94c-4.18,2.87-8.29,2.22-11.38-1.82a26.65,26.65,0,0,1-3.38-6.29,66.55,66.55,0,0,1-3.75-16.3,239.6,239.6,0,0,1-2.14-31.56,34.85,34.85,0,0,1,.12-3.83,3.05,3.05,0,0,1,6-.15,30.26,30.26,0,0,1,.29,3.82c.44,8,.78,16,1.32,23.93a95.64,95.64,0,0,0,2.94,17.95,36,36,0,0,0,2.5,6.72c1.55,3.19,3,3.45,5.41,1a29,29,0,0,0,4.14-5.25c2.25-3.86,4.4-7.8,6.3-11.83,6.08-12.88,10.69-26.33,15.13-39.84,3-9.1,5.72-18.29,8.58-27.43a23.14,23.14,0,0,1,1.3-3.58,3,3,0,0,1,5.57,1.42,23.28,23.28,0,0,1-.25,3.82c-2.4,17.08-4.95,34.15-7.21,51.25-1.61,12.2-2.87,24.44-4.22,36.67-1.19,10.8-2.37,21.61-3.41,32.42-.88,9.07-1.59,18.16-2.3,27.24q-1.29,16.26-2.44,32.52c-.42,5.9-.81,11.8-1.07,17.71-1.56,35.47-3,70.94-1.46,106.45.43,9.9.62,19.82,1.36,29.7.89,11.95,2.17,23.87,3.44,35.79a359.06,359.06,0,0,0,6.54,39.21,10,10,0,0,1,.29,1.89,3.39,3.39,0,0,1-2.46,3.18,3.26,3.26,0,0,1-3.55-1.81,10.06,10.06,0,0,1-.64-2.3c-1.58-8.47-3.36-16.92-4.67-25.43C672.09,693.2,671,684,670,674.78q-1.37-12.87-2.11-25.8c-1.26-21.4-1.88-42.82-1.64-64.25.19-16.62.73-33.25,1.25-49.87q.45-14.37,1.31-28.74c.7-11.49,1.57-23,2.44-34.45q1-13.86,2.28-27.71c.74-8.28,1.59-16.55,2.44-24.81.75-7.32,1.51-14.63,2.34-21.93,1.07-9.37,2.22-18.73,3.35-28.09.43-3.63.91-7.26,1.37-10.89Z" fill="#fff"/><path d="M1053.76,290.36l-3,7.95a80.61,80.61,0,0,1-6.9,14.2,32.16,32.16,0,0,1-6.14,7.32,14.05,14.05,0,0,1-6.37,3.17c-3.92.82-6.94-.87-8.23-4.66a69,69,0,0,1-3.76-19.22,36,36,0,0,1,2-13.68,29,29,0,0,1,12.9-15.55,41.14,41.14,0,0,1,12.49-4.7c3.06-.66,3.62-.41,6.56,2.4,1-4.31,2-8.44,2.91-12.56a17,17,0,0,1,.75-2.76,3,3,0,0,1,3.15-1.7,3.11,3.11,0,0,1,2.68,2.39,15.52,15.52,0,0,1,.06,3.34q-2.79,41.9-2.43,83.88c.1,14.55.4,29.11,1,43.64.54,13.42,1.47,26.82,2.48,40.21.87,11.47,1.89,22.94,3.24,34.36,1.39,11.74,3.28,23.42,5,35.12.11.79.37,1.56.4,2.35a3.25,3.25,0,0,1-2.41,3.18,3.1,3.1,0,0,1-3.79-2.12,47.6,47.6,0,0,1-1-5.16c-2.42-15.8-4.51-31.63-6.12-47.53-3.39-33.44-4.83-67-5-100.56-.09-16,.28-32,.44-48,0-1.75,0-3.5,0-5.25Zm-1.63-19.69a51.28,51.28,0,0,0-5.41,1.09,47.46,47.46,0,0,0-7.58,2.81,23.08,23.08,0,0,0-12.75,16.87c-1.17,5.79-.51,11.43.71,17.05.6,2.74.94,5.63,2.71,8.22a13.22,13.22,0,0,0,1.8-.54,14.14,14.14,0,0,0,4.92-4.43,53.33,53.33,0,0,0,6.33-11.2,187.17,187.17,0,0,0,9.47-29C1052.39,271.28,1052.2,271,1052.13,270.67Z" fill="#fff"/><path d="M518.78,438.61c.39-1,.86-2,1.15-3,3.4-11.82,6.86-23.61,11.44-35,1.72-4.29,3.63-8.51,5.65-12.67a58.11,58.11,0,0,1,4-6.54,16.88,16.88,0,0,1,2.48-2.92c4.87-4.65,10.07-4.1,13.59,1.6a35.45,35.45,0,0,1,3.11,7,82.6,82.6,0,0,1,3.71,17.3c1.11,9.19,1.9,18.43,2.79,27.65a29.55,29.55,0,0,1,.11,4.31,3.25,3.25,0,0,1-3,3.17,3.45,3.45,0,0,1-3.35-2.85,11.19,11.19,0,0,1-.14-1.42c-.67-8-1.23-15.93-2-23.88a112.11,112.11,0,0,0-3.76-20.71,48,48,0,0,0-2.39-6.24,13,13,0,0,0-2.09-2.52,8.45,8.45,0,0,0-4.29,4,109.3,109.3,0,0,0-5.46,10.1,216.07,216.07,0,0,0-10.78,30.19c-3.69,13.06-7.06,26.2-10.57,39.31a23.05,23.05,0,0,1-1,3.19,2.87,2.87,0,0,1-3.15,1.67,2.8,2.8,0,0,1-2.59-2.41A28.61,28.61,0,0,1,512,464c0-8.79-.26-17.58-.08-26.37.38-18.21,1-36.43,1.46-54.64,0-1.44.1-2.88.26-4.31.32-2.82,1.75-4.4,3.62-4.14s2.8,1.71,2.74,4.36c-.12,5.11-.37,10.22-.53,15.33q-.69,22-1.35,44.09Z" fill="#fff"/><path d="M448.29,446.75c-4.19,6.81-7.55,13.28-8.66,20.67-.74,4.87,1.23,7.56,5.93,8.82a24.32,24.32,0,0,0,9.5.36,132.18,132.18,0,0,0,26.85-6.81c1.8-.63,3.58-1.33,5.4-1.93a12.17,12.17,0,0,1,2.78-.63,2.79,2.79,0,0,1,3,1.92,3.12,3.12,0,0,1-1.34,3.74,17.55,17.55,0,0,1-2.63,1.14c-9.3,3.39-18.68,6.52-28.46,8.21-5.05.87-10.16,1.43-15.25.46a22,22,0,0,1-6.26-2.18,11,11,0,0,1-5.7-8.42,20.28,20.28,0,0,1,.6-9.49,77.33,77.33,0,0,1,4.73-12c9-16.91,20.13-32.24,34.75-44.81a82.82,82.82,0,0,1,8.12-5.9,9.06,9.06,0,0,1,5.43-1.6c2.49.12,4.37,1.34,5,3.68a9.58,9.58,0,0,1,.36,4.23A47.53,47.53,0,0,1,490,415a86,86,0,0,1-17.44,26.74,38.61,38.61,0,0,1-9.77,7.64,16.32,16.32,0,0,1-8.29,1.94C451.67,451.19,449.2,450.58,448.29,446.75ZM486,405.46c-7.76,1.57-29.54,25.85-35.74,38.89a9.15,9.15,0,0,1,2.38.17c3.21,1.15,6,0,8.56-1.66a31.64,31.64,0,0,0,4.9-3.8,78.59,78.59,0,0,0,18.75-28.53A13.91,13.91,0,0,0,486,405.46Z" fill="#fff"/><path d="M581.32,411c.64-2.3,1.29-4.58,1.9-6.88A183.92,183.92,0,0,1,591,380a69.92,69.92,0,0,1,4.75-9.38,21.82,21.82,0,0,1,4.7-5.35,7.32,7.32,0,0,1,10,.41,24.38,24.38,0,0,1,4.22,5.74,58.13,58.13,0,0,1,4.8,13.51,253.86,253.86,0,0,1,5.39,28.69c.05.32.14.63.16.95a3.39,3.39,0,0,1-2.9,3.75,3.2,3.2,0,0,1-3.38-2.74c-.42-2-.67-4.1-1-6.15-1.47-9.14-3-18.27-5.77-27.14-.8-2.59-1.84-5.1-2.89-7.6a16.11,16.11,0,0,0-2-3.27c-1.2-1.6-2.6-1.64-4-.05a21.13,21.13,0,0,0-2.75,3.9c-1.4,2.69-2.72,5.42-3.86,8.23-4.14,10.23-6.92,20.9-9.47,31.61-1.47,6.21-2.68,12.49-4,18.73a16.75,16.75,0,0,1-.62,2.31,3.15,3.15,0,0,1-3.27,2.26,3,3,0,0,1-2.69-2.36c-.34-1.56-.63-3.14-.82-4.72a356.5,356.5,0,0,1-1.89-52.17c.12-3.83.5-7.65.78-11.48a10,10,0,0,1,.28-1.89,3.19,3.19,0,0,1,6.08.29,8.61,8.61,0,0,1,.07,2.38c-1.13,11.32-.9,22.66-.78,34,0,2.86.12,5.71.18,8.57Z" fill="#fff"/><path d="M998.53,276.73a11.9,11.9,0,0,0-4.41,5.89c-2.09,5-4.17,10-5.83,15.17a354.84,354.84,0,0,0-9.69,39c-.31,1.56-.58,3.14-1,4.68a3.37,3.37,0,0,1-3,2.62,3.29,3.29,0,0,1-3.2-2.43c-1-3.21-1.81-6.45-2.65-9.69a119.74,119.74,0,0,1-4.12-30.78c0-8.61,1-17.21,1.52-25.82a5.08,5.08,0,0,1,.14-.94,3.56,3.56,0,0,1,3.13-2.52,3.47,3.47,0,0,1,3,2.69,8,8,0,0,1,0,1.9c-.32,4-.64,8-1,11.93a126.91,126.91,0,0,0,1.74,33.87,5.27,5.27,0,0,0,.47,1.35,5.82,5.82,0,0,0,.82,1c.79-3.21,1.53-6.24,2.28-9.26,2.39-9.76,4.92-19.5,8.64-28.86a84.91,84.91,0,0,1,4.76-9.9,17.83,17.83,0,0,1,4-4.72,6.5,6.5,0,0,1,9.44.57,18,18,0,0,1,3.34,5.18,54,54,0,0,1,3.17,9.52c1.5,7.18,2.67,14.43,3.93,21.66a11.41,11.41,0,0,1,.11,2.86,3.3,3.3,0,0,1-2.8,2.85,3.07,3.07,0,0,1-3-1.87,25.47,25.47,0,0,1-.79-3.71c-1.29-7.06-2.45-14.15-3.94-21.17a51.8,51.8,0,0,0-3-8.56A11,11,0,0,0,998.53,276.73Z" fill="#fff"/><path d="M166.37,642.41a6.71,6.71,0,0,1-4.74-1.86,3.16,3.16,0,0,1-.17-4.32c2.27-2.74,5.77-2.73,7.33.58.2.43.45.84.62,1.28C170.44,640.73,169.25,642.41,166.37,642.41Z" fill="#fff"/></svg>