<svg width="250" height="250" fill="none" xmlns="http://www.w3.org/2000/svg"><mask id="a" style="mask-type:alpha" maskUnits="userSpaceOnUse" x="0" y="0" width="250" height="250"><circle cx="125" cy="125" r="125" fill="#C4C4C4"/></mask><g mask="url(#a)"><path fill="#000" d="M0 0h250v250H0z"/><path d="M0 26.408A18 18 0 0 1 10.317 10.13l107-50.504a18 18 0 0 1 15.366 0l107 50.505A18 18 0 0 1 250 26.407v3.378c0 9.94-8.059 18-18 18H18c-9.941 0-18-8.06-18-18v-3.378Z" fill="#fff"/><path d="M250 46.938c0 5.213-55.964 19.562-125 19.562S0 52.151 0 46.938C0 41.726 55.964 37.5 125 37.5s125 4.226 125 9.438Z" fill="#fff"/><path d="M61.79 58.643c-1.065-10.599 7.257-19.799 17.91-19.799h89.605c10.652 0 18.974 9.2 17.909 19.8l-6.344 63.155c-.924 9.198-8.665 16.201-17.909 16.201H86.043c-9.244 0-16.986-7.003-17.91-16.201L61.79 58.643Z" fill="#fff"/></g></svg>